# xmcd
# 
# Track frame offsets:
#     150
#     18009
#     36478
#     54368
#     69453
#     91692
#     107580
#     124607
#     146908
#     163932
#     185460
# 
# Disc length: 2681
# 
# Revision: 1
# Processed by: cddbd v1.5.2PL0 Copyright (c) Steve Scherf et al.
# Submitted via: BonkEnc v1.0.5
# 
DISCID=8f0a770b
DTITLE=Texas Dukes - Fatherland [CD2]
DYEAR=2008
DGENRE=Country
TTITLE0=Hollywood Cowboy
TTITLE1=Hotel Band
TTITLE2=No One But You
TTITLE3=Mary's Way
TTITLE4=Amarillo Bar Hop
TTITLE5=One Waltz With You
TTITLE6=Duketown
TTITLE7=Margaretta
TTITLE8=Panhandle Throw-Down
TTITLE9=Your Heart and Mine
TTITLE10=Fatherhood
EXTD=Released by Wallstone Entertainment under a Creative Commons Noncommercial, No Derivitives license.
EXTT0=
EXTT1=
EXTT2=
EXTT3=
EXTT4=
EXTT5=
EXTT6=
EXTT7=
EXTT8=
EXTT9=
EXTT10=
PLAYORDER=
